<svg enable-background="new 0 0 512 512" viewBox="0 0 512 512" xmlns="http://www.w3.org/2000/svg" xmlns:xlink="http://www.w3.org/1999/xlink"><linearGradient id="SVGID_1_" gradientUnits="userSpaceOnUse" x1="82.591" x2="427.921" y1="429.491" y2="84.161"><stop offset=".0089" stop-color="#1f0084"/><stop offset=".1103" stop-color="#1d1997"/><stop offset=".3121" stop-color="#1a44b7"/><stop offset=".5073" stop-color="#1767d1"/><stop offset=".6916" stop-color="#157fe3"/><stop offset=".8606" stop-color="#148eee"/><stop offset="1" stop-color="#1493f2"/></linearGradient><g id="_x32_1_Science"><path d="m418.881 256.953c8.333-8.691 16.07-17.261 22.856-25.832 33.094-41.783 43.093-78.329 28.094-103.089-19.522-32.26-71.067-33.212-131.064-16.189-16.548-61.308-44.404-105.829-82.615-105.829-37.855 0-65.592 43.807-82.02 104.28-60.235-17.261-112.017-16.428-131.659 15.951-20.594 33.927 5.595 83.091 52.616 130.708-47.021 47.497-73.21 96.661-52.616 130.469 23.095 38.235 88.983 27.934 132.016 15.952 16.666 59.64 44.165 102.613 81.663 102.613 37.855 0 65.591-43.807 82.138-104.28 42.811 12.076 108.679 21.78 131.54-16.07 14.999-24.642 5-61.187-28.094-102.971-6.785-8.572-14.522-17.143-22.855-25.713zm-356.052-118.327c11.071-18.333 51.188-20.713 105.589-5.238-4.643 22.022-7.976 45.474-10 69.52-16.428 12.023-31.903 24.642-46.188 37.617-42.735-43.57-61.068-82.734-49.401-101.899zm93.804 141.182c-9.761-7.738-18.808-15.356-27.141-22.856 8.333-7.619 17.38-15.238 27.023-22.856-.477 15.119-.477 29.642.118 45.712zm-93.804 95.233c-11.667-19.046 6.666-58.211 49.402-101.661 14.285 12.856 29.879 25.593 46.307 37.617 2.023 23.927 5.475 47.378 10.237 69.163-28.876 8.36-90.368 20.577-105.946-5.119zm265.342-191.894c-16.071-10.476-28.927-18.094-43.45-26.189 12.618-5.595 24.999-10.595 36.784-14.761 2.619 12.856 4.88 26.546 6.666 40.95zm-72.019-153.325c21.666 0 44.759 33.689 59.758 89.281-19.046 6.547-38.569 14.761-57.973 24.047-20.356-10-41.069-18.69-61.068-25.713 14.999-54.641 37.855-87.615 59.283-87.615zm-64.878 110.827c12.737 4.404 26.189 9.761 40.117 16.07-17.023 9.286-30.475 17.142-47.497 28.451 1.904-15.951 4.404-30.712 7.38-44.521zm-7.024 188.204c16.666 11.071 30.355 19.046 47.021 28.094-13.452 6.19-26.784 11.547-39.641 16.071-2.975-13.69-5.475-28.451-7.38-44.165zm71.902 153.325c-21.19 0-43.807-32.379-58.806-86.067 19.641-6.785 39.998-15.357 60.592-25.475 19.523 9.523 38.927 17.499 57.497 23.927-15 54.641-37.856 87.615-59.283 87.615zm64.996-110.827c-11.904-4.166-24.165-9.047-36.546-14.523 15.238-8.332 27.975-16.07 43.212-26.069-1.785 14.403-4.047 27.974-6.666 40.592zm9.761-71.425c-22.975 16.189-46.307 30.475-73.091 44.283-13.689-7.023-27.498-14.761-41.307-23.094-12.38-7.499-24.047-15.237-35.117-22.975-2.023-29.879-1.904-54.639-.119-82.376 27.261-19.165 49.878-32.379 76.782-46.069 25.237 13.094 48.331 26.903 72.972 44.165 1.785 28.569 2.023 55.473-.12 86.066zm75.473-175.11c21.784 0 36.902 5.357 43.093 15.594 9.166 15.118-.595 43.45-26.308 75.829-6.309 7.976-13.571 16.071-21.308 24.047-14.523-13.333-30.594-26.546-47.974-39.164-2.023-22.856-5.238-45.117-9.642-66.068 23.926-6.785 45.116-10.238 62.139-10.238zm-50.593 107.614c10.237 7.976 19.999 16.189 29.046 24.522-9.047 8.214-18.809 16.428-29.165 24.522.714-16.546.714-32.021.119-49.044zm93.685 140.944c-15.525 25.605-76.812 13.296-105.589 5.238 4.524-20.832 7.737-43.093 9.761-65.71 17.499-12.737 33.688-25.952 48.212-39.403 7.737 8.095 14.88 16.071 21.189 23.927 25.713 32.499 35.593 60.831 26.427 75.948zm-142.611-117.255c0 27.855-22.737 50.473-50.711 50.473-27.975 0-50.592-22.618-50.592-50.473 0-27.975 22.617-50.712 50.592-50.712 27.974.001 50.711 22.737 50.711 50.712z" fill="url(#SVGID_1_)"/></g><g id="Layer_1"/></svg>