<svg id="Capa_1" enable-background="new 0 0 320.447 320.447" height="512" viewBox="0 0 320.447 320.447" width="512" xmlns="http://www.w3.org/2000/svg" xmlns:xlink="http://www.w3.org/1999/xlink"><linearGradient id="lg1"><stop offset="0" stop-color="#72edf2"/><stop offset="1" stop-color="#5151e5"/></linearGradient><linearGradient id="SVGID_1_" gradientTransform="matrix(21.333 0 0 -21.333 2948.334 11603.024)" gradientUnits="userSpaceOnUse" x1="-118.727" x2="-128.438" xlink:href="#lg1" y1="540.686" y2="523.866"/><linearGradient id="SVGID_00000081646188637345487140000002860565582863088549_" gradientTransform="matrix(21.333 0 0 -21.333 2948.334 11603.024)" gradientUnits="userSpaceOnUse" x1="-127.51" x2="-137.221" xlink:href="#lg1" y1="545.757" y2="528.937"/><g><g><g><circle cx="288.447" cy="288.446" fill="url(#SVGID_1_)" r="32"/><path d="m250.734 205.478-45.254-45.254 105.593-105.594c12.497-12.497 12.497-32.757 0-45.254s-32.757-12.497-45.254 0l-105.594 105.594-105.596-105.596c-12.497-12.497-32.757-12.497-45.254 0s-12.497 32.757 0 45.254l105.594 105.594-105.596 105.596c-12.497 12.497-12.497 32.759 0 45.254 12.497 12.497 32.759 12.497 45.254 0l105.598-105.594 45.254 45.254c12.497 12.497 32.757 12.497 45.254 0 12.498-12.494 12.498-32.757.001-45.254z" fill="url(#SVGID_00000081646188637345487140000002860565582863088549_)"/></g></g></g></svg>