<svg xmlns="http://www.w3.org/2000/svg" version="1.1" xmlns:xlink="http://www.w3.org/1999/xlink" width="612" height="612" x="0" y="0" viewBox="-100 -100 712 712" xml:space="preserve" class="">
<radialGradient id="radial-gradient-o" cx="350" cy="350" gradientUnits="userSpaceOnUse" r="400"><stop offset="0" stop-color="#fb8c00"/><stop offset="1" stop-color="#fa3900"/></radialGradient><g id="Layer_2" data-name="Layer 2"><g id="Square"><g id="_15.Soundcloud" data-name="15.Soundcloud"><rect id="Background" fill="url(#radial-gradient-o)" x="-100" y="-100" height="712" rx="72" width="712"/><g fill="#fff"><path id="Shade" d="m143 5.27c-10.53 26.42-29.8 55.28-56.12 81.6s-55.19 45.59-81.61 56.13a23.85 23.85 0 0 1 -5.27-15v-104a24 24 0 0 1 24-24h104a23.85 23.85 0 0 1 15 5.27z" opacity=".1"/><g id="Icon">
<path d="M510.106 30.06a7.5 7.5 0 0 0-5.919-2.519l-149.312 5.964a7.49 7.49 0 0 0-3.125.072 7.515 7.515 0 0 0-5.772 7.432l-2.11 13.214c-8.585 53.764-35.732 103.282-76.441 139.434l-7.232 6.423-6.269-7.059a236.346 236.346 0 0 1-34.794-51.509 7.516 7.516 0 0 0-13.453 6.704 251.403 251.403 0 0 0 37.01 54.785l6.268 7.058-11.922 10.588-79.336-88.853 23.277-66.535a251.142 251.142 0 0 0 12.604 54.412 7.515 7.515 0 1 0 14.174-4.997 236.098 236.098 0 0 1-13.259-69.141l-.579-14.5a7.514 7.514 0 0 0-5.711-6.996 7.452 7.452 0 0 0-3.907-.651L38.449.095a7.513 7.513 0 0 0-8.694 7.721l5.964 149.316a7.486 7.486 0 0 0 .071 3.121c.831 3.492 3.974 5.824 7.422 5.771l13.226 2.112c53.763 8.585 103.281 35.732 139.434 76.441l6.268 7.058-52.579 46.694-15.676-17.652c-8.825-9.937-24.087-10.84-34.025-2.017l-21.135 18.77a11.872 11.872 0 0 0 6.692 20.69h-.001l18.41 1.859 2.926 3.294-8.917 32.954-63.348 56.258a11.596 11.596 0 0 0-3.902 8.037c-.019.326-.017.649-.01.972l-11.031.61a14.35 14.35 0 0 0-13.397 11.898L.221 467.776a14.328 14.328 0 0 0 3.417 12.059 14.32 14.32 0 0 0 11.572 4.821l34.239-1.894a14.35 14.35 0 0 0 13.396-11.898l2.181-12.431a11.576 11.576 0 0 0 7.651-2.942l63.345-56.255.004-.003 33.776-4.96 12.757 14.365-.594 17.684a11.865 11.865 0 0 0 6.82 11.145 11.862 11.862 0 0 0 12.929-1.87l20.973-18.626c9.936-8.824 10.841-24.088 2.017-34.025l-23.59-26.563 14.063-12.488a7.515 7.515 0 1 0-9.981-11.238l-13.85 12.3-10.808-12.171 131.222-116.53a7.514 7.514 0 0 0 .628-10.609 7.515 7.515 0 0 0-10.609-.629L170.561 321.55l-10.808-12.17.097-.086.145-.128 7.521-6.679.587-.521 2.356-2.092 1.243-1.104.983-.873a2443857.148 2443857.148 0 0 0 25.986-23.078l78.737-69.924c37.978-33.728 64.855-78.395 77.049-127.451l15.861 66.709-46.801 41.562a7.514 7.514 0 0 0-.628 10.609 7.494 7.494 0 0 0 5.621 2.525 7.491 7.491 0 0 0 4.988-1.896l46.7-41.472 66.588 23.295c-50.932 5.97-99.268 27.497-137.781 61.698l-81.316 72.215a7.514 7.514 0 0 0-.628 10.609 7.513 7.513 0 0 0 10.609.629l16.03-14.236 46.847 52.752-17.652 15.676a23.946 23.946 0 0 0-8.055 16.595 23.936 23.936 0 0 0 6.038 17.43l18.769 21.135a11.874 11.874 0 0 0 12.531 3.412 11.873 11.873 0 0 0 8.158-10.105l1.859-18.408 3.294-2.926 32.954 8.914 56.259 63.35a11.596 11.596 0 0 0 8.036 3.9c.236.014.472.021.705.021.09 0 .178-.01.268-.012l.61 11.033a14.35 14.35 0 0 0 11.898 13.397l33.774 5.927c.842.147 1.683.22 2.519.22 3.494 0 6.871-1.269 9.541-3.64a14.33 14.33 0 0 0 4.818-11.57l-1.894-34.239a14.35 14.35 0 0 0-11.898-13.397l-12.445-2.183a11.614 11.614 0 0 0-2.927-7.648l-51.294-57.759-4.965-5.591-4.959-33.777 14.364-12.757 17.682.594c4.771.181 9.124-2.516 11.145-6.818a11.857 11.857 0 0 0-1.869-12.93l-18.626-20.974c-8.825-9.936-24.087-10.84-34.025-2.017l-26.564 23.591-46.847-52.752 7.232-6.423c40.708-36.152 93.087-57.258 147.489-59.432l14.501-.579a7.511 7.511 0 0 0 7.015-5.81c.085-.19.182-.372.253-.573a7.462 7.462 0 0 0 .378-3.231l23.29-145.849a7.514 7.514 0 0 0-1.801-6.178zM48.129 467.783l-32.968 1.824 5.706-32.522 18.927-1.047 11.611 13.075-3.276 18.67zm17.082-25.76-18.233-20.53 9.825-8.725 18.233 20.53-9.825 8.725zm21.063-18.703-18.233-20.53 8.665-7.695 18.233 20.53-8.665 7.695zm19.902-17.675-18.233-20.53 8.665-7.695 18.233 20.53-8.665 7.695zm25.449-20.955a7.51 7.51 0 0 0-3.899 1.817l-1.649 1.465-18.233-20.53 1.649-1.465a7.5 7.5 0 0 0 2.263-3.656l6.929-25.606 39.185 44.124-26.245 3.851zm81.844 8.237c3.323 3.74 2.982 9.487-.758 12.808l-15.473 13.742.448-13.332a7.508 7.508 0 0 0-1.893-5.242l-82.676-93.096a7.507 7.507 0 0 0-4.864-2.487l-14.168-1.431 15.755-13.99c3.738-3.32 9.484-2.982 12.807.758l90.822 102.27zM50.436 149.045 45.139 16.383l129.763 20.721-28.622 81.813-27.7-29.843a7.515 7.515 0 0 0-11.017 10.224l27.499 29.627-84.626 20.12zm162.94 92.61-6.268-7.058c-33.728-37.98-78.395-64.856-127.452-77.05l66.723-15.864 79.417 88.944-12.42 11.028zm51.558 58.055 12.171-10.809 46.66 52.54-12.171 10.809-46.66-52.54zm103.255 102.8a7.507 7.507 0 0 0-3.655-2.264l-25.607-6.928 44.124-39.186 3.854 26.246a7.522 7.522 0 0 0 1.817 3.899l1.465 1.649-20.531 18.234-1.467-1.65zm101.809 61.363 1.824 32.969-32.522-5.706-1.047-18.927 13.075-11.611 18.67 3.275zm-25.76-17.082-20.53 18.233-8.725-9.824 20.53-18.233 8.725 9.824zm-18.704-21.063-20.53 18.233-7.694-8.664 20.531-18.233 7.693 8.664zm-25.368-28.567 7.694 8.665-20.531 18.233-7.694-8.664 20.531-18.234zm-5.024-98.629a9.032 9.032 0 0 1 6.019-2.284 9.051 9.051 0 0 1 6.788 3.044l13.742 15.474-13.332-.448a7.498 7.498 0 0 0-5.242 1.892l-93.096 82.676a7.51 7.51 0 0 0-2.486 4.864l-1.431 14.167-13.991-15.755a9.012 9.012 0 0 1-2.272-6.56 9.01 9.01 0 0 1 3.032-6.246l102.269-90.824zm-47.97 22.121-12.17 10.808-46.66-52.54 12.171-10.808 46.659 52.54zM474.9 172.688l-81.814-28.622 29.844-27.7a7.515 7.515 0 0 0-10.225-11.016l-29.626 27.499-20.121-84.625 132.662-5.298-20.72 129.762z" fill="#ffffff" opacity="1" data-original="#000000" class=""></path><path d="M467.585 67.854a7.515 7.515 0 0 0-10.583-.979l-22.996 19.104a7.516 7.516 0 0 0-.98 10.583 7.5 7.5 0 0 0 5.785 2.712 7.478 7.478 0 0 0 4.797-1.734l22.996-19.104a7.514 7.514 0 0 0 .981-10.582zM99.754 68.393 80.652 45.397a7.515 7.515 0 1 0-11.562 9.604l19.102 22.996a7.495 7.495 0 0 0 5.784 2.713 7.478 7.478 0 0 0 4.797-1.734 7.514 7.514 0 0 0 .981-10.583z" fill="#ffffff" opacity="1" data-original="#000000" class=""></path>
</g></g></g></g></g>
</svg>