<?xml version="1.0" encoding="UTF-8"?>
<!-- Generator: Adobe Illustrator 25.4.1, SVG Export Plug-In . SVG Version: 6.00 Build 0)  -->
<svg xmlns="http://www.w3.org/2000/svg" xmlns:xlink="http://www.w3.org/1999/xlink" version="1.1" id="Capa_1" x="0px" y="0px" viewBox="0 0 511.935 511.935" style="enable-background:new 0 0 511.935 511.935;" xml:space="preserve" width="512" height="512">
<g>
	<path style="fill:#00599C;" d="M477.642,383.952c3.569-6.183,5.788-13.15,5.788-19.406V147.389c0-6.256-2.215-13.221-5.786-19.404   l-147.4,13.28L228.844,255.968l80.581,114.922L477.642,383.952z"/>
	<path style="fill:#004482;" d="M275.666,507.243l188.065-108.578c5.417-3.128,10.341-8.529,13.911-14.714L255.968,255.968   l-145.887,5.156L34.294,383.953c3.569,6.183,8.495,11.586,13.911,14.712l188.064,108.578   C247.103,513.499,264.833,513.499,275.666,507.243z"/>
	<path style="fill:#659AD2;" d="M477.643,127.983c-3.571-6.185-8.496-11.586-13.912-14.714L275.666,4.692   c-10.833-6.256-28.563-6.256-39.397,0L48.205,113.27c-10.835,6.254-19.698,21.609-19.698,34.119v217.157   c0,6.256,2.217,13.223,5.788,19.406l221.674-127.984L477.643,127.983z"/>
	<g>
		<path style="fill:#FFFFFF;" d="M255.968,407.609c-83.615,0-151.641-68.026-151.641-151.641s68.026-151.641,151.641-151.641    c53.954,0,104.274,29.035,131.32,75.773l-65.626,37.976c-13.536-23.394-38.71-37.928-65.693-37.928    c-41.808,0-75.821,34.012-75.821,75.82c0,41.807,34.012,75.82,75.821,75.82c26.986,0,52.16-14.534,65.698-37.932l65.626,37.974    C360.246,378.573,309.925,407.609,255.968,407.609z"/>
	</g>
	<g>
		<polygon style="fill:#FFFFFF;" points="407.609,247.543 390.759,247.543 390.759,230.695 373.912,230.695 373.912,247.543     357.062,247.543 357.062,264.392 373.912,264.392 373.912,281.242 390.759,281.242 390.759,264.392 407.609,264.392   "/>
	</g>
	<g>
		<polygon style="fill:#FFFFFF;" points="470.792,247.543 453.942,247.543 453.942,230.695 437.095,230.695 437.095,247.543     420.245,247.543 420.245,264.392 437.095,264.392 437.095,281.242 453.942,281.242 453.942,264.392 470.792,264.392   "/>
	</g>
</g>















</svg>
