<svg height="432pt" viewBox="0 -29 432 432" width="432pt" xmlns="http://www.w3.org/2000/svg"><path d="m240 350.195312h72v16h-72zm0 0" fill="#f7ba61"/><path d="m208 350.195312h16v16h-16zm0 0" fill="#f7ba61"/><path d="m176 350.195312h16v16h-16zm0 0" fill="#f7ba61"/><path d="m0 350.195312h56v16h-56zm0 0" fill="#f7ba61"/><path d="m120 350.195312h40v16h-40zm0 0" fill="#f7ba61"/><path d="m424 286.195312c0 44.183594-35.816406 80-80 80s-80-35.816406-80-80c0-44.179687 35.816406-80 80-80s80 35.820313 80 80zm0 0" fill="#dededc"/><path d="m168 286.195312c0 44.183594-35.816406 80-80 80s-80-35.816406-80-80c0-44.179687 35.816406-80 80-80s80 35.820313 80 80zm0 0" fill="#dededc"/><path d="m191.128906 133.691406-7.03125 48.410156-15.472656-.113281-17.121094-57.246093zm0 0" fill="#e2c3ae"/><g fill="#c0f5f9"><path d="m71.335938 103.53125h64.664062v16h-64.664062zm0 0"/><path d="m96 54.195312h56v16h-56zm0 0"/><path d="m96 150.195312h72v16h-72zm0 0"/><path d="m64 54.195312h16v16h-16zm0 0"/><path d="m40 102.195312h16v16h-16zm0 0"/><path d="m64 150.195312h16v16h-16zm0 0"/></g><path d="m344 374.195312c-48.601562 0-88-39.398437-88-88 0-48.597656 39.398438-88 88-88s88 39.402344 88 88c-.058594 48.578126-39.421875 87.945313-88 88zm0-160c-39.765625 0-72 32.238282-72 72 0 39.765626 32.234375 72 72 72s72-32.234374 72-72c-.042969-39.746093-32.253906-71.953124-72-72zm0 0" fill="#f55648"/><path d="m88 374.195312c-48.601562 0-88-39.398437-88-88 0-48.597656 39.398438-88 88-88s88 39.402344 88 88c-.058594 48.578126-39.421875 87.945313-88 88zm0-160c-39.765625 0-72 32.238282-72 72 0 39.765626 32.234375 72 72 72s72-32.234374 72-72c-.042969-39.746093-32.253906-71.953124-72-72zm0 0" fill="#f55648"/><path d="m88 342.195312c-3.789062.003907-7.570312-.378906-11.28125-1.140624l3.203125-15.675782c7.671875 1.5625 15.628906.859375 22.910156-2.023437l5.96875 14.839843c-6.613281 2.65625-13.675781 4.015626-20.800781 4zm0 0" fill="#f9f9f9"/><path d="m127.59375 325.789062-11.3125-11.3125c8.328125-8.324218 12.5625-19.898437 11.578125-31.632812-.984375-11.738281-7.089844-22.441406-16.691406-29.261719l9.28125-13.03125c13.433593 9.550781 21.976562 24.535157 23.351562 40.960938 1.378907 16.425781-4.550781 32.621093-16.207031 44.277343zm0 0" fill="#f9f9f9"/><path d="m344 342.195312c-3.789062.003907-7.570312-.378906-11.28125-1.140624l3.203125-15.675782c7.671875 1.5625 15.628906.859375 22.910156-2.023437l5.96875 14.839843c-6.613281 2.65625-13.675781 4.015626-20.800781 4zm0 0" fill="#f9f9f9"/><path d="m383.59375 325.789062-11.3125-11.3125c8.328125-8.324218 12.5625-19.898437 11.578125-31.632812-.984375-11.738281-7.089844-22.441406-16.691406-29.261719l9.28125-13.03125c13.433593 9.550781 21.976562 24.535157 23.351562 40.960938 1.378907 16.425781-4.550781 32.621093-16.207031 44.277343zm0 0" fill="#f9f9f9"/><path d="m342 282.691406c-3.246094 0-6.167969-1.957031-7.398438-4.957031l-38-92.496094c-.398437-.964843-.605468-2-.601562-3.042969v-32c0-4.417968 3.582031-8 8-8h80c4.417969 0 8 3.582032 8 8 0 4.417969-3.582031 8-8 8h-72v22.402344l37.398438 91.039063c1.011718 2.46875.726562 5.273437-.757813 7.488281s-3.976563 3.542969-6.640625 3.542969zm0 0" fill="#9ba823"/><path d="m200 294.195312c-3.53125.003907-6.648438-2.3125-7.664062-5.695312l-50.503907-168c-1.273437-4.230469 1.128907-8.695312 5.359375-9.96875 4.234375-1.269531 8.695313 1.128906 9.96875 5.363281l50.503906 168c1.273438 4.230469-1.125 8.695313-5.359374 9.964844-.75.222656-1.523438.335937-2.304688.335937zm0 0" fill="#9ba823"/><path d="m88 310.195312c-13.253906 0-24-10.742187-24-24 0-13.253906 10.746094-24 24-24s24 10.746094 24 24c0 13.257813-10.746094 24-24 24zm0 0" fill="#9c9c9c"/><path d="m200 294.195312h-112c-3.050781.003907-5.839844-1.734374-7.183594-4.472656-1.34375-2.742187-1.011718-6.007812.855469-8.421875l80.65625-104.191406c1.515625-1.957031 3.851563-3.097656 6.328125-3.097656l135.34375.183593c3.234375.003907 6.148438 1.957032 7.382812 4.945313 1.234376 2.988281.550782 6.425781-1.734374 8.710937l-104 104c-1.5 1.5-3.53125 2.34375-5.648438 2.34375zm-95.6875-16h92.375l88-88-112.136719-.152343zm0 0" fill="#d4e630"/><path d="m352 46.195312h-72v-16s-48-24-40-24c4.992188 0 28.703125-3.117187 45.808594-5.460937 12.042968-1.652344 24.300781-.507813 35.832031 3.34375 18.128906 6.042969 30.359375 23.007813 30.359375 42.117187zm0 0" fill="#6f7478"/><path d="m336 46.195312v32h-16l-3.703125 7.402344c-2.453125 4.949219-8.175781 7.335938-13.417969 5.597656l-14.878906-5v-40zm0 0" fill="#f5d3bd"/><path d="m176 86.195312h112v-32l-21.015625-7.007812c-33.082031-11.023438-68.859375-10.9375-101.886719.242188l-33.898437 13.167968zm0 0" fill="#4799cf"/><path d="m272 118.195312v-32c0-8.835937-7.164062-16-16-16s-16 7.164063-16 16v36.664063zm0 0" fill="#277baa"/><path d="m288 86.195312 16 32h-32v-32zm0 0" fill="#e2c3ae"/><path d="m216 102.195312-8 40-66.910156-18.246093c-12.929688-3.53125-22.75-14.058594-25.378906-27.199219-2.316407-11.597656 1.3125-23.582031 9.671874-31.945312 4.742188-4.738282 11.273438-7.234376 17.964844-6.863282s12.910156 3.570313 17.101563 8.800782l15.550781 19.453124zm0 0" fill="#6f7478"/><path d="m251.726562 158.765625-44.414062 88.230469 14.777344 8.472656c5.882812 3.929688 8.414062 11.308594 6.183594 18.023438l-1.128907 3.367187c-.757812 2.277344-2.496093 4.089844-4.734375 4.945313-2.242187.855468-4.746094.660156-6.824218-.527344l-41.1875-23.527344c-3.601563-2.0625-5.03125-6.539062-3.285157-10.304688l44.917969-97.335937-8-8 8-40 25.066406 16.703125c13.125 8.722656 17.683594 25.859375 10.628906 39.953125zm0 0" fill="#eecdb8"/><path d="m195.273438 269.652344-20.875-11.902344c-3.601563-2.0625-5.03125-6.539062-3.285157-10.304688l21.351563-46.273437 29.839844 16-14.992188 29.824219zm0 0" fill="#dededc"/><path d="m288 46.195312c2.503906.503907 32 32 32 32h16v-32zm0 0" fill="#f7ba61"/><path d="m216 310.195312c-13.253906 0-24-10.742187-24-24 0-13.253906 10.746094-24 24-24s24 10.746094 24 24c0 13.257813-10.746094 24-24 24zm0 0" fill="#9c9c9c"/><path d="m178.953125 230.507812 43.199219 25.015626c5.832031 3.9375 8.328125 11.277343 6.113281 17.953124l-1.128906 3.367188c-.757813 2.273438-2.496094 4.089844-4.734375 4.945312-2.242188.855469-4.746094.660157-6.828125-.527343l-41.175781-23.511719c-3.601563-2.0625-5.03125-6.539062-3.285157-10.304688zm0 0" fill="#277baa"/><path d="m384 142.195312h-56v16h56c4.417969 0 8-3.582031 8-8 0-4.417968-3.582031-8-8-8zm0 0" fill="#6f7478"/><path d="m256 150.195312h112v-12.796874c0-10.605469-8.597656-19.203126-19.199219-19.203126h-108.800781v16c0 8.839844 7.164062 16 16 16zm0 0" fill="#f5d3bd"/><path d="m328 118.195312h16v32h-16zm0 0" fill="#9c9c9c"/><path d="m344 310.195312c-13.253906 0-24-10.742187-24-24 0-13.253906 10.746094-24 24-24s24 10.746094 24 24c0 13.257813-10.746094 24-24 24zm0 0" fill="#9c9c9c"/></svg>