<svg id="Capa_1" enable-background="new 0 0 512 512" height="512" viewBox="0 0 512 512" width="512" xmlns="http://www.w3.org/2000/svg" xmlns:xlink="http://www.w3.org/1999/xlink"><linearGradient id="SVGID_1_" gradientUnits="userSpaceOnUse" x1="35.19" x2="424.906" y1="388.519" y2="-1.197"><stop offset="0" stop-color="#ffd8d8" stop-opacity="0"/><stop offset=".9981" stop-color="#ffb2b2"/></linearGradient><linearGradient id="lg1"><stop offset="0" stop-color="#ff4d4d" stop-opacity=".4"/><stop offset=".1463" stop-color="#ff4d4d" stop-opacity=".342"/><stop offset="1" stop-color="#ff4d4d" stop-opacity="0"/></linearGradient><linearGradient id="SVGID_00000124141471772913963160000013776119515866222777_" gradientUnits="userSpaceOnUse" x1="191.617" x2="191.617" xlink:href="#lg1" y1="319.08" y2="57.096"/><linearGradient id="SVGID_00000170962391190122363100000017472151733330459832_" gradientUnits="userSpaceOnUse" x1="336.212" x2="336.212" xlink:href="#lg1" y1="454.9" y2="183.27"/><g><g><path d="m506.654 127.571c-7.266-56.172-37.822-127.571-167.386-127.571-89.477 0-90.686 42.86-185.991 21.61-69.453-15.485-138.511 35.599-148.111 106.961-10.356 76.984 45.331 112.275 63.409 176.866 19.501 69.672 33.507 206.563 120.277 206.563 95.678 0 100.618-74.035 162.591-155.271 59.629-78.166 170.626-109.984 155.211-229.158z" fill="url(#SVGID_1_)"/></g><g><g><g><g><path d="m336.211 103.098v207.222c0 4.838-3.922 8.76-8.76 8.76h-271.67c-4.838 0-8.76-3.922-8.76-8.76v-207.222l4.999-5h278.837z" fill="#fff"/><g><path d="m310.951 209.63c-4.02.76-7.09 4.04-7.55 8.1l-3.09 27.59c-11.3 4.14-21.68 10.2-30.77 17.8l-25.43-11.14c-3.74-1.64-8.12-.62-10.79 2.48-11.01 12.74-19.67 27.54-25.34 43.75-1.36 3.87-.06 8.17 3.24 10.61l13.91 10.26h67.32c8.48-15.44 24.89-25.91 43.76-25.91v-85.9c-8.64 0-17.08.81-25.26 2.36z" fill="#d8d8ff"/></g><path d="m271.967 259.995h-33.931c-2.761 0-5-2.239-5-5v-55.954c0-2.761 2.239-5 5-5h33.931c2.761 0 5 2.239 5 5v55.954c0 2.762-2.239 5-5 5z" fill="#ff6c6c"/><path d="m327.454 57.096h-271.671c-4.838 0-8.76 3.922-8.76 8.76l-.002 244.464c0 4.838 3.922 8.76 8.76 8.76h271.67c4.838 0 8.76-3.922 8.76-8.76l.003-244.464c0-4.838-3.922-8.76-8.76-8.76z" fill="url(#SVGID_00000124141471772913963160000013776119515866222777_)"/><path d="m336.214 103.098v-37.242c0-4.838-3.922-8.76-8.76-8.76h-271.671c-4.838 0-8.76 3.922-8.76 8.76v37.241h289.191z" fill="#ff6c6c"/><g fill="#fff"><circle cx="77.142" cy="82.055" r="5"/><circle cx="94.979" cy="82.055" r="5"/><circle cx="112.815" cy="82.055" r="5"/></g></g><g><path d="m461.2 353.32-22.39-16.49c.98-5.77 1.54-11.71 1.54-17.76 0-6.03-.56-11.96-1.54-17.73l22.39-16.5c3.3-2.43 4.6-6.73 3.25-10.6-5.65-16.21-14.3-31.01-25.29-43.77-2.67-3.1-7.05-4.13-10.8-2.49l-25.48 11.14c-9.05-7.57-19.43-13.66-30.74-17.8l-3.09-27.58c-.45-4.07-3.52-7.35-7.55-8.11-8.19-1.55-16.65-2.36-25.29-2.36s-17.08.81-25.26 2.36c-4.02.76-7.09 4.04-7.55 8.1l-3.09 27.59c-11.3 4.14-21.68 10.2-30.77 17.8l-25.43-11.14c-3.74-1.64-8.11-.62-10.79 2.48-11.01 12.74-19.67 27.54-25.34 43.75-1.36 3.87-.06 8.17 3.24 10.61l22.4 16.52c-.99 5.77-1.52 11.67-1.52 17.73 0 6.05.53 11.99 1.52 17.76l-22.4 16.52c-3.3 2.43-4.6 6.74-3.24 10.61 5.67 16.2 14.32 31 25.28 43.74 2.68 3.1 7.05 4.12 10.8 2.48l25.48-11.13c9.09 7.57 19.47 13.62 30.77 17.79l3.09 27.62c.46 4.07 3.53 7.35 7.56 8.11 8.19 1.54 16.63 2.33 25.25 2.33 8.64 0 17.1-.81 25.29-2.36 4.03-.76 7.1-4.04 7.55-8.11l3.09-27.59c11.31-4.17 21.65-10.22 30.74-17.79l25.45 11.13c3.75 1.64 8.13.62 10.8-2.47 10.99-12.74 19.64-27.55 25.32-43.78 1.35-3.87.05-8.18-3.25-10.61zm-124.99 34.45c-37.94 0-68.67-30.77-68.67-68.71 0-37.9 30.73-68.67 68.67-68.67s68.67 30.77 68.67 68.67c0 37.94-30.73 68.71-68.67 68.71z" fill="#9393ff"/></g><g><path d="m336.211 244.05c-41.44 0-75.01 33.61-75.01 75.01 0 41.44 33.57 75.05 75.01 75.05s75.01-33.61 75.01-75.05c0-41.4-33.57-75.01-75.01-75.01zm0 124.95c-27.57 0-49.9-22.36-49.9-49.93 0-27.54 22.33-49.9 49.9-49.9s49.9 22.36 49.9 49.9c0 27.57-22.33 49.93-49.9 49.93z" fill="#6c6cff"/></g></g><g><path d="m195.755 192.58c0-2.99-.276-5.934-.767-8.801l11.117-8.186c1.638-1.206 2.281-3.343 1.612-5.263-2.805-8.044-7.099-15.391-12.554-21.723-1.326-1.539-3.497-2.046-5.358-1.233l-12.648 5.527c-4.492-3.756-9.644-6.777-15.256-8.831l-1.532-13.693c-.226-2.02-1.75-3.647-3.747-4.025-4.066-.769-8.262-1.172-12.552-1.172-4.289 0-8.476.403-12.538 1.171-1.997.378-3.52 2.005-3.746 4.025l-1.532 13.693c-5.612 2.054-10.763 5.06-15.271 8.831l-12.622-5.526c-1.86-.814-4.029-.31-5.357 1.226-5.466 6.323-9.762 13.67-12.577 21.715-.672 1.92-.03 4.058 1.607 5.265l11.117 8.199c-.491 2.867-.751 5.796-.751 8.801s.261 5.949.751 8.816l-11.117 8.199c-1.637 1.207-2.279 3.345-1.607 5.265 2.814 8.042 7.106 15.387 12.55 21.708 1.326 1.54 3.497 2.047 5.359 1.233l12.648-5.526c4.508 3.756 9.659 6.762 15.271 8.831l1.532 13.706c.226 2.022 1.752 3.651 3.752 4.027 4.064.764 8.256 1.157 12.532 1.157 4.29 0 8.486-.403 12.552-1.172 1.997-.378 3.521-2.005 3.747-4.025l1.532-13.693c5.612-2.07 10.748-5.075 15.256-8.831l12.635 5.526c1.861.814 4.031.308 5.358-1.23 5.455-6.323 9.75-13.671 12.564-21.725.671-1.921.028-4.059-1.611-5.266l-11.115-8.185c.49-2.866.766-5.81.766-8.815zm-51.685 24.781c-13.684 0-24.767-11.097-24.767-24.781 0-13.669 11.083-24.767 24.767-24.767s24.767 11.097 24.767 24.767c0 13.684-11.083 24.781-24.767 24.781z" fill="#fa6"/></g><g><g><path d="m245.075 142.219h-7.04c-2.761 0-5-2.239-5-5v-7.04c0-2.761 2.239-5 5-5h7.04c2.761 0 5 2.239 5 5v7.04c0 2.762-2.238 5-5 5z" fill="#fa6"/><g fill="#9393ff"><path d="m233.035 156.63c0 2.761 2.239 5 5 5h33.931c2.761 0 5-2.239 5-5s-2.239-5-5-5h-33.931c-2.761 0-5 2.239-5 5z"/><path d="m283.967 169.029h-45.931c-2.761 0-5 2.239-5 5s2.239 5 5 5h45.931c2.761 0 5-2.239 5-5s-2.239-5-5-5z"/></g></g></g><g><g><g><g><g><path d="m155.351 417.549h-58.73c-5.925 0-10.728-4.803-10.728-10.728v-112.073c0-5.925 4.803-10.728 10.728-10.728h8.741l8.173 5h24.902l8.173-5h8.741c5.925 0 10.728 4.803 10.728 10.728v112.073c0 5.925-4.803 10.728-10.728 10.728z" fill="#ff6c6c"/><path d="m143.65 296.206 2.96-12.186h-41.248l2.96 12.186c.584 2.405 2.738 4.098 5.213 4.098h24.902c2.475 0 4.629-1.694 5.213-4.098z" fill="#6c6cff"/></g></g></g><path d="m145.066 350.244-7.958-7.958c3.32-6.337 2.321-14.364-2.998-19.683-6.55-6.549-17.206-6.549-23.756 0-6.549 6.549-6.549 17.207 0 23.756 3.275 3.274 7.576 4.912 11.878 4.912 2.685 0 5.369-.638 7.805-1.914l7.958 7.958c.977.976 2.256 1.464 3.536 1.464s2.559-.488 3.536-1.464c1.951-1.953 1.951-5.119-.001-7.071zm-27.641-10.956c-2.65-2.65-2.65-6.963 0-9.613 1.325-1.325 3.066-1.988 4.807-1.988s3.481.663 4.807 1.988c2.65 2.65 2.65 6.963 0 9.613-2.651 2.651-6.963 2.651-9.614 0z" fill="#fff"/></g><path d="m111.02 389.541c0 2.761 2.239 5 5 5h19.931c2.761 0 5-2.239 5-5s-2.239-5-5-5h-19.931c-2.761 0-5 2.238-5 5z" fill="#fff"/></g></g><path d="m415.979 175.717c-2.762 0-5-2.238-5-5 0-3.032-2.468-5.5-5.5-5.5-2.762 0-5-2.238-5-5s2.238-5 5-5c3.032 0 5.5-2.468 5.5-5.5 0-2.762 2.238-5 5-5s5 2.238 5 5c0 3.032 2.468 5.5 5.5 5.5 2.762 0 5 2.238 5 5s-2.238 5-5 5c-3.032 0-5.5 2.468-5.5 5.5 0 2.762-2.239 5-5 5z" fill="#ff6c6c"/><path d="m38.586 408.724c-2.761 0-5-2.238-5-5 0-3.032-2.467-5.5-5.5-5.5-2.761 0-5-2.238-5-5s2.239-5 5-5c3.033 0 5.5-2.468 5.5-5.5 0-2.762 2.239-5 5-5s5 2.238 5 5c0 3.032 2.467 5.5 5.5 5.5 2.761 0 5 2.238 5 5s-2.239 5-5 5c-3.033 0-5.5 2.468-5.5 5.5 0 2.761-2.238 5-5 5z" fill="#6c6cff"/><path d="m195.455 465.787c-2.761 0-5-2.238-5-5 0-3.032-2.467-5.5-5.5-5.5-2.761 0-5-2.238-5-5s2.239-5 5-5c3.033 0 5.5-2.468 5.5-5.5 0-2.762 2.239-5 5-5s5 2.238 5 5c0 3.032 2.467 5.5 5.5 5.5 2.761 0 5 2.238 5 5s-2.239 5-5 5c-3.033 0-5.5 2.468-5.5 5.5 0 2.762-2.239 5-5 5z" fill="#ff9c33"/><path d="m376.841 129.989c-1.279 0-2.56-.488-3.535-1.465l-10.5-10.5c-1.953-1.952-1.953-5.118 0-7.07l10.5-10.5c1.951-1.953 5.119-1.953 7.07 0l10.5 10.5c1.953 1.952 1.953 5.118 0 7.07l-10.5 10.5c-.976.977-2.256 1.465-3.535 1.465zm-3.429-15.5 3.429 3.429 3.429-3.429-3.429-3.429z" fill="#6c6cff"/><path d="m415.979 473.59c-1.279 0-2.56-.488-3.535-1.465l-10.5-10.5c-1.953-1.952-1.953-5.118 0-7.07l10.5-10.5c1.951-1.953 5.119-1.953 7.07 0l10.5 10.5c1.953 1.952 1.953 5.118 0 7.07l-10.5 10.5c-.976.977-2.256 1.465-3.535 1.465zm-3.429-15.5 3.429 3.429 3.429-3.429-3.429-3.429z" fill="#ff6c6c"/></g><g><path d="m461.2 353.32-22.39-16.49c.98-5.77 1.54-11.71 1.54-17.76 0-6.03-.56-11.96-1.54-17.73l22.39-16.5c3.3-2.43 4.6-6.73 3.25-10.6-5.65-16.21-14.3-31.01-25.29-43.77-2.67-3.1-7.05-4.13-10.8-2.49l-25.48 11.14c-9.05-7.57-19.43-13.66-30.74-17.8l-3.09-27.58c-.45-4.07-3.52-7.35-7.55-8.11-8.19-1.55-16.65-2.36-25.29-2.36s-17.08.81-25.26 2.36c-4.02.76-7.09 4.04-7.55 8.1l-3.09 27.59c-11.3 4.14-21.68 10.2-30.77 17.8l-25.43-11.14c-3.74-1.64-8.11-.62-10.79 2.48-11.01 12.74-19.67 27.54-25.34 43.75-1.36 3.87-.06 8.17 3.24 10.61l22.4 16.52c-.99 5.77-1.52 11.67-1.52 17.73 0 6.05.53 11.99 1.52 17.76l-22.4 16.52c-3.3 2.43-4.6 6.74-3.24 10.61 5.67 16.2 14.32 31 25.28 43.74 2.68 3.1 7.05 4.12 10.8 2.48l25.48-11.13c9.09 7.57 19.47 13.62 30.77 17.79l3.09 27.62c.46 4.07 3.53 7.35 7.56 8.11 8.19 1.54 16.63 2.33 25.25 2.33 8.64 0 17.1-.81 25.29-2.36 4.03-.76 7.1-4.04 7.55-8.11l3.09-27.59c11.31-4.17 21.65-10.22 30.74-17.79l25.45 11.13c3.75 1.64 8.13.62 10.8-2.47 10.99-12.74 19.64-27.55 25.32-43.78 1.35-3.87.05-8.18-3.25-10.61zm-124.99 34.45c-37.94 0-68.67-30.77-68.67-68.71 0-37.9 30.73-68.67 68.67-68.67s68.67 30.77 68.67 68.67c0 37.94-30.73 68.71-68.67 68.71z" fill="url(#SVGID_00000170962391190122363100000017472151733330459832_)"/></g></g></svg>