<svg id="flat_gradient" height="512" viewBox="0 0 64 64" width="512" xmlns="http://www.w3.org/2000/svg" xmlns:xlink="http://www.w3.org/1999/xlink" data-name="flat gradient"><linearGradient id="linear-gradient" gradientUnits="userSpaceOnUse" x1="3.998" x2="60" y1="32.001" y2="32.001"><stop offset="0" stop-color="#096fe0"/><stop offset=".15843" stop-color="#167ce3"/><stop offset="1" stop-color="#5ec3f6"/></linearGradient><path d="m60 14.82996s0 15.97003 0 15.97003c0 .95001-.40002 1.81-1.07001 2.31 0 0-25.70001 18.95001-25.70001 18.95001-.7552.55998-1.70476.56006-2.45996 0l-25.70001-18.95001c-.66998-.5-1.07001-1.35999-1.07001-2.31 0 0 0-16.54999.00008-16.54994-.08222-1.93717 1.93135-3.52825 3.54991-2.29008l24.41998 18.57 24.5-18.01001c.65002-.47998 1.45001-.54999 2.14001-.19995.85004.42999 1.39001 1.40997 1.39001 2.50995z" fill="url(#linear-gradient)"/></svg>