<svg id="Capa_1" enable-background="new 0 0 512 512" viewBox="0 0 512 512" xmlns="http://www.w3.org/2000/svg"><g><path d="m234.286 512h128.563c2.845 0 5.151-2.306 5.151-5.151v-128.564z" fill="#c4e2ff"/><path d="m334.15 433.85c14.095-14.095 32.407-22.926 33.85-42.674v-386.025c0-2.845-2.306-5.151-5.151-5.151h-357.698c-2.845 0-5.151 2.306-5.151 5.151v501.698c0 2.845 2.306 5.151 5.151 5.151h236.209c21.955 0 33.187-18.546 48.711-34.071z" fill="#d8ecfe"/><path d="m362.849 0h-15.453v359.583c0 24.518-19.876 44.393-44.393 44.393h-37.876c-2.845 0-5.151 2.306-5.151 5.151v37.876c0 24.518-19.876 44.393-44.393 44.393h-215.583v15.453c0 2.845 2.306 5.151 5.151 5.151h236.209c21.955 0 33.187-18.546 48.711-34.071l44.079-44.078c14.095-14.095 32.407-22.926 33.85-42.673v-386.027c0-2.845-2.306-5.151-5.151-5.151z" fill="#c4e2ff"/><path d="m299.675 487.754c-15.525 15.524-36.581 24.246-58.536 24.246h-17.139 7.035c24.518 0 44.393-19.875 44.393-44.393v-43.027c0-2.845 2.306-5.151 5.151-5.151h43.027c24.518 0 44.393-19.876 44.393-44.393v-7.036 17.139c0 21.955-8.722 43.011-24.246 58.536z" fill="#eaf6ff"/><path d="m167.313 141.272-31.789-84.233c-.027-.07-.054-.14-.083-.209-1.496-3.639-5.003-5.989-8.937-5.989h-.008c-3.937.003-7.444 2.359-8.935 6.003-.024.058-.047.118-.07.177l-32.08 84.23c-1.519 3.987.482 8.451 4.47 9.97 3.988 1.518 8.451-.483 9.97-4.471l6.094-16.001h40.878l6.031 15.98c1.168 3.094 4.108 5 7.23 5 .906 0 1.828-.161 2.726-.5 3.994-1.507 6.009-5.964 4.503-9.957zm-55.481-25.976 14.647-38.458 14.513 38.458z" fill="#ee6161"/><g><path d="m317.94 245.666h-272c-4.267 0-7.726-3.459-7.726-7.726 0-4.268 3.459-7.726 7.726-7.726h272c4.267 0 7.726 3.459 7.726 7.726s-3.459 7.726-7.726 7.726z" fill="#925cb4"/></g><g><path d="m317.94 293.666h-272c-4.267 0-7.726-3.459-7.726-7.726s3.459-7.726 7.726-7.726h272c4.267 0 7.726 3.459 7.726 7.726s-3.459 7.726-7.726 7.726z" fill="#925cb4"/></g><g><path d="m317.94 389.666h-272c-4.267 0-7.726-3.459-7.726-7.726s3.459-7.726 7.726-7.726h272c4.267 0 7.726 3.459 7.726 7.726s-3.459 7.726-7.726 7.726z" fill="#925cb4"/></g><g><path d="m221.94 437.666h-176c-4.267 0-7.726-3.459-7.726-7.726s3.459-7.726 7.726-7.726h176c4.267 0 7.726 3.459 7.726 7.726s-3.459 7.726-7.726 7.726z" fill="#925cb4"/></g><g><path d="m189.94 341.666h-144c-4.267 0-7.726-3.459-7.726-7.726s3.459-7.726 7.726-7.726h144c4.267 0 7.726 3.459 7.726 7.726s-3.459 7.726-7.726 7.726z" fill="#925cb4"/></g><g><g><g><path d="m128 199.726c-48.373 0-87.726-39.354-87.726-87.726s39.353-87.726 87.726-87.726c21.029 0 41.369 7.555 57.273 21.275 3.231 2.787 3.592 7.665.804 10.896-2.787 3.231-7.665 3.592-10.897.804-13.1-11.299-29.855-17.523-47.18-17.523-39.852 0-72.274 32.422-72.274 72.274s32.422 72.274 72.274 72.274c18.24 0 35.744-5.514 50.62-15.946 3.493-2.451 8.312-1.605 10.762 1.89 2.45 3.493 1.604 8.312-1.89 10.762-17.488 12.263-38.061 18.746-59.492 18.746z" fill="#ee6161"/></g></g></g><path d="m176.086 74.382 7.942 23.825c1.011 3.034 2.716 5.792 4.977 8.053l130.016 130.016h22.627v22.627l117.553 117.553c10.058 10.058 26.365 10.058 36.422 0l8.832-8.832c10.058-10.058 10.058-26.365 0-36.422l-117.552-117.553h-22.627v-22.627l-130.016-130.017c-2.262-2.262-5.019-3.966-8.053-4.977l-23.825-7.942z" fill="#925cb4"/><path d="m504.457 331.202-20.604-20.604c10.058 10.058 10.058 26.365 0 36.422l-8.832 8.832c-10.058 10.058-26.365 10.058-36.422 0l20.604 20.604c10.058 10.058 26.365 10.058 36.422 0l8.832-8.832c10.057-10.058 10.057-26.364 0-36.422z" fill="#814ba2"/><path d="m202.382 48.086-19.897-6.632c-8.053-2.684-15.715 4.977-13.031 13.031l6.632 19.897c14.432-.203 26.093-11.864 26.296-26.296z" fill="#fd8087"/><g fill="#fea95c"><path d="m320.962 208.962h64v32h-64z" transform="matrix(.707 -.707 .707 .707 -55.692 315.472)"/><path d="m473.945 353.672c-1.977 0-3.955-.755-5.463-2.263l-75.728-75.728c-3.018-3.018-3.018-7.909 0-10.928 3.018-3.016 7.91-3.016 10.927 0l75.728 75.728c3.018 3.018 3.018 7.909 0 10.928-1.509 1.508-3.487 2.263-5.464 2.263z"/></g></g><g/><g/><g/><g/><g/><g/><g/><g/><g/><g/><g/><g/><g/><g/><g/></svg>