<svg height="490pt" viewBox="0 0 490 490.59686" width="490pt" xmlns="http://www.w3.org/2000/svg"><path d="m245.5625 490.597656c-16.503906-.046875-32.320312-6.613281-44-18.265625l-183.066406-183.070312c-24.261719-24.261719-24.261719-63.601563 0-87.863281l183.066406-183.203126c24.265625-24.261718 63.601562-24.261718 87.867188 0l183.199218 183.066407c24.261719 24.265625 24.261719 63.605469 0 87.867187l-183.066406 183.203125c-11.683594 11.652344-27.5 18.21875-44 18.265625zm0-469.335937c-10.851562.023437-21.253906 4.335937-28.933594 12l-183.066406 183.070312c-7.664062 7.652344-11.96875 18.035157-11.96875 28.863281 0 10.832032 4.304688 21.214844 11.96875 28.867188l183.066406 183.199219c7.652344 7.664062 18.039063 11.96875 28.867188 11.96875s21.214844-4.304688 28.867187-11.96875l183.199219-183.066407c7.660156-7.652343 11.964844-18.035156 11.964844-28.863281 0-10.832031-4.304688-21.214843-11.964844-28.867187l-183.066406-183.203125c-7.679688-7.664063-18.082032-11.976563-28.933594-12zm0 0"/><path d="m245.5625 181.261719c-29.457031 0-53.332031-23.875-53.332031-53.332031 0-29.453126 23.875-53.332032 53.332031-53.332032 29.453125 0 53.332031 23.878906 53.332031 53.332032 0 29.457031-23.878906 53.332031-53.332031 53.332031zm0-85.332031c-17.671875 0-32 14.328124-32 32 0 17.671874 14.328125 32 32 32s32-14.328126 32-32c0-17.671876-14.328125-32-32-32zm0 0"/><path d="m245.5625 394.597656c-29.457031 0-53.332031-23.878906-53.332031-53.335937 0-29.453125 23.875-53.332031 53.332031-53.332031 29.453125 0 53.332031 23.878906 53.332031 53.332031 0 29.457031-23.878906 53.335937-53.332031 53.335937zm0-85.335937c-17.671875 0-32 14.328125-32 32 0 17.675781 14.328125 32 32 32s32-14.324219 32-32c0-17.671875-14.328125-32-32-32zm0 0"/><path d="m352.230469 287.929688c-29.457031 0-53.335938-23.878907-53.335938-53.332032 0-29.457031 23.878907-53.335937 53.335938-53.335937 29.453125 0 53.332031 23.878906 53.332031 53.335937 0 29.453125-23.878906 53.332032-53.332031 53.332032zm0-85.332032c-17.675781 0-32 14.324219-32 32 0 17.671875 14.324219 32 32 32 17.671875 0 32-14.328125 32-32 0-17.675781-14.328125-32-32-32zm0 0"/><path d="m168.746094 66.09375 15.085937-15.082031 39.164063 39.164062-15.085938 15.082031zm0 0"/><path d="m268.121094 165.578125 15.085937-15.085937 46.332031 46.332031-15.085937 15.085937zm0 0"/><path d="m234.894531 170.597656h21.335938v128h-21.335938zm0 0"/></svg>