<svg height="512" viewBox="0 0 512 512" width="512" xmlns="http://www.w3.org/2000/svg" xmlns:xlink="http://www.w3.org/1999/xlink">
<radialGradient id="radial-gradient-p" cx="350" cy="350" gradientUnits="userSpaceOnUse" r="300"><stop offset="0" stop-color="#6401d9"/><stop offset=".99" stop-color="#5201b3"/></radialGradient><g id="Layer_2" data-name="Layer 2"><g id="Square"><g id="_49.Yahoo" data-name="49.Yahoo"><rect id="Background" fill="url(#radial-gradient-p)" height="512" rx="64" width="512"/><g fill="#fff"><path fill="#ffffff" d="M147.252 252.168c-.434 0 4.769 11.2 4.914 11.2 11.362 20.611 33.258 33.428 70.2 36.966-5.273 4-11.606 11.6-12.485 20.374-6.628 4.278-19.96 5.7-30.321 2.432-14.526-4.587-20.085-33.321-41.831-29.225-4.7.882-3.771 3.988.3 6.626 6.633 4.284 12.867 9.65 17.673 21.069 3.7 8.76 11.471 24.426 36.042 24.426a107.858 107.858 0 0 0 16.578-1.178s.184 22.381.184 31.079c0 10.042-13.553 12.866-13.553 17.691 0 1.908 112.566 2.831 113.1-.209.527-3.056-13.39-7.6-13.519-17.091-.085-5.775.262-9.153.262-34.293s-3.382-34.428-15.154-41.832c36.316-3.725 58.8-12.712 69.753-36.759.851.018 4.467-11.231 4-11.231 2.455-9.081 3.794-19.822 4.042-32.539-.06-34.5-16.573-46.695-19.745-52.42 4.675-26.121-.785-37.994-3.319-42.074-9.361-3.326-32.558 8.56-45.24 16.93-20.651-6.033-64.331-5.458-80.711 1.556-30.221-21.63-46.213-18.315-46.213-18.315s-10.333 18.509-2.73 45.6c-9.942 12.669-17.354 21.628-17.354 45.383.009 13.4 1.586 25.378 5.137 35.835z" opacity="1" data-original="#ffffff"></path>
</g></g></g></g>
</svg>