<svg id="Capa_1" enable-background="new 0 0 426.667 426.667" height="512" viewBox="0 0 426.667 426.667" width="512" xmlns="http://www.w3.org/2000/svg" xmlns:xlink="http://www.w3.org/1999/xlink"><linearGradient id="lg1"><stop offset="0" stop-color="#72edf2"/><stop offset="1" stop-color="#5151e5"/></linearGradient><linearGradient id="SVGID_1_" gradientTransform="matrix(21.333 0 0 -21.333 1870.667 12794.111)" gradientUnits="userSpaceOnUse" x1="-68.437" x2="-79.384" xlink:href="#lg1" y1="597.023" y2="578.064"/><linearGradient id="SVGID_00000093168503825967383510000014334271702936817815_" gradientTransform="matrix(21.333 0 0 -21.333 1870.667 12794.111)" gradientUnits="userSpaceOnUse" x1="-76.312" x2="-87.259" xlink:href="#lg1" y1="601.57" y2="582.61"/><linearGradient id="SVGID_00000157294055132682767900000009638807073434508953_" gradientTransform="matrix(21.333 0 0 -21.333 1870.667 12794.111)" gradientUnits="userSpaceOnUse" x1="-73.714" x2="-84.661" xlink:href="#lg1" y1="600.07" y2="581.11"/><linearGradient id="SVGID_00000070800120225876543310000004771986757590641290_" gradientTransform="matrix(21.333 0 0 -21.333 1870.667 12794.111)" gradientUnits="userSpaceOnUse" x1="-73.366" x2="-84.313" xlink:href="#lg1" y1="599.869" y2="580.909"/><g><g><g><g><g><circle cx="394.667" cy="85.333" fill="url(#SVGID_1_)" r="32"/></g><g><path d="m309.333 117.333h-277.333c-17.666 0-32-14.334-32-32s14.334-32 32-32h277.333c17.666 0 32 14.334 32 32s-14.334 32-32 32z" fill="url(#SVGID_00000093168503825967383510000014334271702936817815_)"/></g></g><g><path d="m309.333 245.333h-277.333c-17.666 0-32-14.334-32-32s14.334-32 32-32h277.333c17.666 0 32 14.334 32 32s-14.334 32-32 32z" fill="url(#SVGID_00000157294055132682767900000009638807073434508953_)"/></g><g><path d="m181.333 373.333h-149.333c-17.666 0-32-14.334-32-32s14.334-32 32-32h149.333c17.666 0 32 14.334 32 32s-14.334 32-32 32z" fill="url(#SVGID_00000070800120225876543310000004771986757590641290_)"/></g></g></g></g></svg>