<svg id="Capa_1" enable-background="new 0 0 512.057 512.057" height="512" viewBox="0 0 512.057 512.057" width="512" xmlns="http://www.w3.org/2000/svg"><g><path d="m489.706 264.777v50c.255 9.464-9.552 17.092-18.64 14.55l-64.42-16.11v143.84h-30v-213.05c0-4.62 2.13-8.98 5.77-11.82s8.39-3.85 12.87-2.73l83.06 20.77c6.68 1.67 11.36 7.67 11.36 14.55z" fill="#8066ff"/><g><circle cx="351.646" cy="457.057" fill="#99f" r="55"/></g><path d="m212.006 341.007-46.19-11.55c-9.122-2.511-18.86 5.091-18.64 14.55v93.064l29.847 28.161c0-25.456.153-102.015.153-102.015l27.55 6.89c1.22.31 2.44.45 3.65.45 6.72 0 12.84-4.55 14.54-11.36 2.01-8.04-2.88-16.18-10.91-18.19z" fill="#fb3"/><path d="m241.646 19.597-76.37-19.09c-9.12-2.53-18.88 5.09-18.63 14.55v177.283l30.488 35.523-.488-143.596 65 16.25 31.787-34.919z" fill="#ff8066"/><circle cx="121.89" cy="227.864" fill="#ff4d4d" r="55.244"/><path d="m306.646 236.836 30.244 31.028-.244-212.806c0-6.88-4.69-12.88-11.37-14.55l-83.63-20.91v80.92l65 16.25z" fill="#ff4d4d"/><circle cx="281.646" cy="267.864" fill="#cc295f" r="55.244"/><circle cx="130.198" cy="465.232" fill="#f93" r="46.825"/><g><path d="m69.979 369.707c.222-.077.445-.16.665-.248 7.693-3.074 11.437-11.802 8.363-19.495-.517-1.295-13.019-31.801-43.161-39.306-8.038-2.002-16.178 2.893-18.18 10.931-2.002 8.039 2.892 16.178 10.931 18.18 14.91 3.712 22.482 21.152 22.551 21.327 2.987 7.471 11.307 11.218 18.831 8.611z" fill="#fb3"/></g><g><path d="m69.979 59.497c.222-.077.445-.16.665-.248 7.693-3.074 11.437-11.802 8.363-19.495-.517-1.295-13.019-31.801-43.16-39.306-8.038-2.002-16.178 2.893-18.18 10.931-2.002 8.039 2.892 16.178 10.931 18.18 14.91 3.712 22.482 21.152 22.551 21.327 2.986 7.472 11.306 11.219 18.83 8.611z" fill="#fb3"/></g><g><path d="m396.791 149.497c-.222-.077-.445-.16-.665-.248-7.693-3.074-11.437-11.802-8.363-19.495.517-1.295 13.019-31.801 43.161-39.306 8.038-2.002 16.178 2.893 18.18 10.931 2.002 8.039-2.892 16.178-10.931 18.18-14.91 3.712-22.482 21.152-22.551 21.327-2.987 7.472-11.307 11.219-18.831 8.611z" fill="#f93"/></g><circle cx="42.174" cy="120.162" fill="#ff8066" r="15"/><circle cx="391.645" cy="15.057" fill="#ff4d4d" r="15"/><circle cx="479.838" cy="186.301" fill="#ff4d4d" r="15"/><circle cx="241.646" cy="417.057" fill="#ff8066" r="15"/></g></svg>