<svg xmlns="http://www.w3.org/2000/svg" version="1.1" xmlns:xlink="http://www.w3.org/1999/xlink" width="512" height="512" x="0" y="0" viewBox="0 0 512 512" style="enable-background:new 0 0 512 512" xml:space="preserve" class=""><g transform="matrix(-1.8369701987210297e-16,1,-1,-1.8369701987210297e-16,511.9995918273927,-0.0005226135253053599)"><path fill="#3f71ed" d="m421.405 342.812-.001-.001c-6.513-6.012-16.611-5.81-22.879.457l-23.875 23.875c-5.202 5.202-14.097 1.518-14.097-5.839v-31.03c0-9.122-7.395-16.516-16.516-16.516H49.548c-9.122 0-16.516-7.395-16.516-16.516v-82.581c0-9.122 7.395-16.516 16.516-16.516h7.375c8.227 0 15.853-5.622 17.173-13.743 1.683-10.348-6.26-19.289-16.29-19.289h-8.258C22.184 165.113 0 187.296 0 214.661v82.581c0 27.365 22.184 49.548 49.548 49.548H327.52v12.832c0 15.723 8.051 30.859 21.967 38.177a41.722 41.722 0 0 0 13.691 4.42l39.621-24.347 18.966-34.719c-.119-.114-.238-.228-.36-.341z" opacity="1" data-original="#ff78b9" class=""></path><path fill="#3f71ed" d="M123.871 198.145h220.165c9.122 0 16.516-7.395 16.516-16.516v-31.031c0-7.357 8.895-11.042 14.097-5.839l99.511 99.514c6.45 6.45 6.45 16.907 0 23.357l-28.887 28.888 6.176 22.496 36.714-28.037c19.302-19.315 19.302-50.734-.004-70.056l-98.269-98.273-26.897-12.913a38.46 38.46 0 0 0-5.979 1.291c-17.743 5.34-29.494 21.41-29.494 39.573v14.516H124.755c-8.227 0-15.853 5.622-17.174 13.742-1.683 10.346 6.259 19.288 16.29 19.288z" opacity="1" data-original="#ff78b9" class=""></path><g fill="#f555b4"><path d="m497.52 220.919-98.269-98.274c-9.586-9.586-23.082-14.678-36.258-12.913l122.838 122.864c12.871 12.879 12.871 33.831.016 46.702l-17.217 17.216c-6.449 6.45-16.905 6.45-23.355.002l-.001.002c-6.632 6.633-6.416 17.451.476 23.812 6.514 6.013 16.612 5.81 22.88-.458l28.895-28.897c19.301-19.314 19.301-50.733-.005-70.056zM368.854 402.613c10.722 0 21.234-4.194 29.153-12.113l23.873-23.876c6.509-6.509 6.402-17.066-.117-23.47l-58.587 59.066a41.53 41.53 0 0 0 5.678.393z" fill="#1a68cd" opacity="1" data-original="#f555b4" class=""></path></g></g></svg>