<svg fill="none" height="24" viewBox="0 0 24 24" width="24" xmlns="http://www.w3.org/2000/svg" xmlns:xlink="http://www.w3.org/1999/xlink"><linearGradient id="paint0_linear_3_5985" gradientUnits="userSpaceOnUse" x1="3.206" x2="3.206" y1="2" y2="22"><stop offset="0" stop-color="#e100ff"/><stop offset="1" stop-color="#7f00ff"/></linearGradient><path clip-rule="evenodd" d="m11.5 2.13397c.3094-.17863.6906-.17863 1 0l7.7943 4.5c.3094.17864.5.50876.5.86603v9c0 .3573-.1906.6874-.5.866l-7.7943 4.5c-.3094.1787-.6906.1787-1 0l-1.94852-1.125c-.47829-.2761-.64217-.8877-.36602-1.366.27614-.4783.88774-.6422 1.36604-.366l1.4485.8363 6.7943-3.9226v-7.84535l-6.7943-3.92265-6.79419 3.92265v7.88175l1.56663 1.0243c.00615-.0006.01238-.0012.01869-.0019.19611-.0196.4407-.0576.67155-.1268.24131-.0724.3971-.1582.47777-.2308.05204-.0468.05959-.0684.05959-.1239v-7.5c0-.55228.44771-1 1-1 .55228 0 .99996.44772.99996 1v7.5c0 .6945-.30491 1.2354-.72163 1.6105-.38809.3493-.85731.5447-1.24101.6598-.39416.1183-.77459.174-1.04723.2013-.13876.0139-.25554.0209-.33989.0246-.04229.0018-.07678.0027-.10217.0032l-.03122.0005-.01028.0001h-.00375-.00153c-.00031 0-.00129 0-.00129-1v1c-.19438 0-.38455-.0567-.54724-.163l-2.29419-1.5c-.2825-.1847-.45276-.4995-.45276-.837v-9c0-.35727.1906-.68739.5-.86603zm.3599 6.66031c.6027-.5023 1.4775-.79428 2.6401-.79428 1.1627 0 2.0375.29198 2.6402.79428.5957.49643.8598 1.14959.8598 1.70572 0 .5523-.4477 1-1 1-.5522 0-1-.4477-1-1 0 .0111.0006.0162.0003.0163-.0013.0002-.0167-.0825-.1404-.1856-.1473-.1227-.5225-.3307-1.3599-.3307-.8373 0-1.2125.208-1.3598.3307-.1183.0986-.1376.1785-.1401.1851.0005.2507.0136.2759.0188.2859.0002.0004.0004.0007.0006.0011.0004.0008.0123.0264.0668.0748.0593.0527.1682.1316.361.228.3875.1937.7835.2963 1.2953.4243l.0326.0081c.4824.1205 1.0732.2681 1.6721.5676.7618.3809 1.1598.9694 1.3562 1.4605.0962.2403.1445.4569.1693.6178.0125.0811.0192.15.0229.2034.0019.0267.0029.0497.0036.0686l.0006.0252.0001.0103v.0045.0021.001c0 .0005 0 .001-1 .001l1-.001c0 .5561-.2641 1.2103-.8598 1.7067-.6027.5023-1.4775.7943-2.6402.7943-1.1626 0-2.0374-.292-2.6401-.7943-.5958-.4964-.8599-1.1496-.8599-1.7057 0-.5523.4478-1 1-1 .5523 0 1 .4477 1 1 0-.0111-.0005-.0162-.0002-.0163.0013-.0002.0167.0825.1404.1856.1473.1227.5225.3307 1.3598.3307.8374 0 1.2126-.208 1.3599-.3307.0982-.0819.1282-.1509.137-.1757-.0003-.0018-.0006-.0037-.0009-.0056-.0065-.0423-.0206-.1069-.0494-.1791-.0536-.1339-.1557-.2954-.3938-.4145-.3875-.1937-.7835-.2963-1.2953-.4243l-.0327-.0081c-.4823-.1205-1.0731-.2681-1.672-.5676-.6132-.3066-1.0668-.6863-1.3222-1.1972-.2328-.4656-.2314-.9237-.2306-1.1612 0-.0127 0-.0247 0-.036 0-.55612.2641-1.20929.8599-1.70572z" fill="url(#paint0_linear_3_5985)" fill-rule="evenodd"/></svg>