<svg id="Capa_1" enable-background="new 0 0 497 497" height="512" viewBox="0 0 497 497" width="512" xmlns="http://www.w3.org/2000/svg"><g><path d="m344.621 3.2h-77.7l-18.421 44.58 18.421 44.581h77.7c15.224 0 27.566-12.342 27.566-27.566v-34.029c0-15.224-12.342-27.566-27.566-27.566z" fill="#e48794"/><path d="m291.921 3.2h-25l-18.421 44.581 18.421 44.58h25z" fill="#e06f7d"/><path d="m230.079 3.2h36.842v143.033h-36.842z" fill="#d6a582"/><path d="m30.747 436.932 52.182 28.563 52.181-28.563 20-153.618h-124.363z" fill="#ebbe76"/><path d="m466.253 436.932-52.182 28.563-52.181-28.563-20-153.618h124.363z" fill="#ebbe76"/><path d="m52.929 350.98c0-23.672 4.472-46.43 12.713-67.666h-34.895v153.618l52.182 28.563 6.248-3.419c-22.967-32.245-36.248-70.311-36.248-111.096z" fill="#e8b45f"/><path d="m46.827 256c-10.985 0-20.802 6.86-24.579 17.176l-6.076 16.596c-3.708 10.128 3.789 20.857 14.575 20.857h124.363v-54.629z" fill="#e69761"/><path d="m450.173 256c10.985 0 20.802 6.86 24.579 17.176l6.076 16.596c3.708 10.128-3.789 20.857-14.575 20.857h-124.363v-54.629z" fill="#e69761"/><path d="m135.11 198.152h226.78v238.78h-226.78z" fill="#efd68a"/><path d="m376.957 186.413-109.334-62.504c-11.849-6.774-26.398-6.774-38.247 0l-109.334 62.504c-16.116 9.213-9.578 33.822 8.985 33.822h238.943c18.566 0 25.103-24.609 8.987-33.822z" fill="#e69761"/><path d="m82.929 339.926c-11.505 0-20.831 9.326-20.831 20.831v14.228c0 6.031 4.889 10.92 10.92 10.92h19.822c6.031 0 10.92-4.889 10.92-10.92v-14.228c0-11.504-9.327-20.831-20.831-20.831z" fill="#efd68a"/><path d="m248.5 311.542c-25.978 0-47.037 21.059-47.037 47.037v106.916h94.074v-106.916c0-25.978-21.059-47.037-47.037-47.037z" fill="#d6a582"/><path d="m414.071 339.926c11.505 0 20.831 9.326 20.831 20.831v14.228c0 6.031-4.889 10.92-10.92 10.92h-19.822c-6.031 0-10.92-4.889-10.92-10.92v-14.228c0-11.504 9.327-20.831 20.831-20.831z" fill="#efd68a"/><g><g><path d="m178.629 278.033c-4.143 0-7.5-3.358-7.5-7.5v-13.426c0-4.142 3.357-7.5 7.5-7.5s7.5 3.358 7.5 7.5v13.426c0 4.142-3.358 7.5-7.5 7.5z" fill="#43404f"/></g><g><path d="m318.371 278.033c-4.143 0-7.5-3.358-7.5-7.5v-13.426c0-4.142 3.357-7.5 7.5-7.5s7.5 3.358 7.5 7.5v13.426c0 4.142-3.357 7.5-7.5 7.5z" fill="#43404f"/></g><g><path d="m248.5 286.025c-9.229 0-18.003-3.997-24.075-10.965-2.722-3.123-2.396-7.861.728-10.582 3.122-2.72 7.86-2.396 10.581.727 3.223 3.698 7.876 5.819 12.767 5.819s9.544-2.121 12.767-5.819c2.72-3.123 7.459-3.448 10.581-.727 3.123 2.721 3.449 7.459.728 10.582-6.074 6.969-14.849 10.965-24.077 10.965z" fill="#43404f"/></g></g><path d="m478.128 437.189h-459.256c-10.423 0-18.872 8.449-18.872 18.872v18.867c0 10.423 8.449 18.872 18.872 18.872h459.257c10.423 0 18.872-8.449 18.872-18.872v-18.867c-.001-10.423-8.45-18.872-18.873-18.872z" fill="#e69761"/><g fill="#e48949"><path d="m78.787 256h-31.96c-10.986 0-20.802 6.859-24.579 17.175l-6.076 16.596c-3.708 10.128 3.789 20.857 14.575 20.857h26.619c4.282-19.279 11.565-37.618 21.421-54.628z"/><path d="m73.988 437.189h-55.116c-10.423 0-18.872 8.449-18.872 18.872v18.868c0 10.422 8.449 18.871 18.872 18.871h97.983c-17.567-16.613-32.115-35.702-42.867-56.611z"/><path d="m269.141 124.776-1.517-.867c-11.849-6.774-26.398-6.774-38.247 0l-109.334 62.504c-16.116 9.213-9.578 33.822 8.985 33.822h39.39c11.305-46.792 50.547-83.847 100.723-95.459z"/></g></g></svg>