<svg id="Flat" height="512" viewBox="0 0 16 16" width="512" xmlns="http://www.w3.org/2000/svg" xmlns:xlink="http://www.w3.org/1999/xlink"><linearGradient id="New_Gradient_Swatch" gradientUnits="userSpaceOnUse" x1="3.101" x2="12.899" y1="4.098" y2="13.896"><stop offset="0" stop-color="#1d1361"/><stop offset="0.9" stop-color="#4069ff"/></linearGradient><path d="m9.0726 1.9507 1.2365 2.5054a1.1964 1.1964 0 0 0 .9006.6544l2.7649.4017a1.1962 1.1962 0 0 1 .6629 2.04l-2.0007 1.95a1.1964 1.1964 0 0 0 -.344 1.0588l.4723 2.7536a1.1961 1.1961 0 0 1 -1.7351 1.2614l-2.473-1.3a1.1961 1.1961 0 0 0 -1.1132 0l-2.473 1.3a1.1961 1.1961 0 0 1 -1.7355-1.261l.4723-2.7536a1.1964 1.1964 0 0 0 -.344-1.0588l-2.0007-1.95a1.1962 1.1962 0 0 1 .6629-2.04l2.7642-.4021a1.1964 1.1964 0 0 0 .9006-.6544l1.2368-2.5054a1.1961 1.1961 0 0 1 2.1452 0z" fill="url(#New_Gradient_Swatch)"/></svg>