<svg xmlns="http://www.w3.org/2000/svg" version="1.1" xmlns:xlink="http://www.w3.org/1999/xlink" width="512" height="512" x="0" y="0" viewBox="0 0 16 16" style="enable-background:new 0 0 512 512" xml:space="preserve" class=""><g><linearGradient id="a" x1="3.101" x2="12.899" y1="4.098" y2="13.896" gradientUnits="userSpaceOnUse"><stop stop-opacity="1" stop-color="#010b13" offset="0"></stop><stop stop-opacity="1" stop-color="#010b13" offset="1"></stop></linearGradient><path fill="url(#a)" d="m9.073 1.95 1.236 2.506a1.196 1.196 0 0 0 .9.654l2.766.402a1.196 1.196 0 0 1 .662 2.04l-2 1.95a1.196 1.196 0 0 0-.344 1.059l.472 2.754a1.196 1.196 0 0 1-1.735 1.261l-2.473-1.3a1.196 1.196 0 0 0-1.113 0l-2.473 1.3a1.196 1.196 0 0 1-1.736-1.261l.473-2.754a1.196 1.196 0 0 0-.344-1.058l-2.001-1.95a1.196 1.196 0 0 1 .663-2.04L4.79 5.11a1.196 1.196 0 0 0 .9-.655l1.237-2.505a1.196 1.196 0 0 1 2.146 0z" opacity="1" data-original="url(#a)" class=""></path></g></svg>