<svg id="Layer_1" enable-background="new 0 0 510.54 510.54" height="512" viewBox="0 0 510.54 510.54" width="512" xmlns="http://www.w3.org/2000/svg"><g><g></g><g><path d="m233.392 299.125-81.895 26.839-46.96 46.959 138.197-45.29z" fill="#ffa50a"/><g><path d="m128.02 364.447c-1.549 0-3.123-.241-4.674-.75-7.872-2.58-12.163-11.053-9.583-18.925l36.064-110.046c2.58-7.873 11.057-12.164 18.925-9.583 7.872 2.58 12.163 11.053 9.583 18.926l-36.064 110.046c-2.071 6.321-7.943 10.332-14.251 10.332z" fill="#e49824"/></g><path d="m133.432 344.959-53.25 30.829-24.175 38.867c6.527 8.16 13.545 15.91 21.008 23.207l70.737-78.582z" fill="#50555a"/><path d="m56.01 414.652 77.422-69.694-15.251-15.251-74.968 67.484c4.021 6.007 8.294 11.83 12.797 17.461z" fill="#373c41"/><g><path d="m450.637 197.132c4.45-10.914 7.654-22.07 9.592-33.233l-10.806 10.806-20.848-20.848 20.848-20.848 12.839 12.839c.374-7.335.183-14.615-.562-21.775l-1.67-1.67 1.327-1.327c-.761-6.015-1.925-11.935-3.491-17.723l-8.443 8.443-20.848-20.848 17.044-17.044c-2.553-4.381-5.403-8.611-8.544-12.669l-19.107 19.107-20.848-20.849 19.107-19.107c-4.058-3.142-8.288-5.991-12.669-8.544l-17.044 17.044-20.848-20.848 8.443-8.443c-5.787-1.566-11.707-2.73-17.723-3.491l-1.327 1.327-1.67-1.67c-7.16-.744-14.44-.936-21.775-.562l12.839 12.839-20.848 20.848-20.848-20.848 10.806-10.806c-11.164 1.937-22.319 5.142-33.233 9.592l1.214 1.214-20.848 20.848-7.833-7.833c-4.24 2.704-8.403 5.619-12.476 8.738l9.702 9.702-20.849 20.847-10.75-10.75c-3.42 3.628-6.723 7.404-9.891 11.322l10.034 10.034-20.848 20.848-6.321-6.321c-2.677 4.457-5.207 9.009-7.572 13.641l3.287 3.287-9.179 9.18c-4.724 10.813-8.587 21.921-11.476 33.075l20.655 20.655-20.848 20.848-5.645-5.645c-.679 10.75-.318 21.274 1.167 31.336l4.478-4.478 20.848 20.848-11.655 11.655 10.607 10.607 11.655-11.655 20.848 20.848-11.655 11.655 10.607 10.607 11.655-11.655 20.848 20.848-4.478 4.478c10.062 1.485 20.586 1.846 31.336 1.167l-5.645-5.645 20.848-20.848 20.655 20.655c11.154-2.889 22.262-6.753 33.074-11.476l9.179-9.179 3.287 3.287c4.632-2.365 9.184-4.895 13.641-7.572l-6.321-6.321 20.849-20.849 10.034 10.034c3.918-3.168 7.695-6.471 11.322-9.891l-10.75-10.75 20.848-20.848 9.702 9.702c3.119-4.072 6.033-8.236 8.738-12.476l-7.833-7.833 20.848-20.848zm-252.852-22.427-20.848-20.848 20.848-20.848 20.848 20.848zm31.455-31.455-20.848-20.848 20.848-20.848 20.848 20.848zm31.455-31.455-20.848-20.848 20.848-20.848 20.848 20.848zm31.455-31.455-20.848-20.848 20.848-20.848 20.848 20.848zm-94.365 157.274-20.848-20.848 20.848-20.848 20.848 20.848zm31.455-31.455-20.848-20.848 20.848-20.848 20.848 20.848zm31.455-31.455-20.848-20.848 20.848-20.848 20.848 20.848zm31.455-31.455-20.848-20.848 20.848-20.848 20.848 20.848zm31.454-31.454-20.848-20.848 20.848-20.848 20.848 20.848zm31.455-31.455-20.848-20.848 20.848-20.848 20.848 20.848zm-125.819 188.729-20.848-20.848 20.848-20.848 20.848 20.848zm31.455-31.455-20.848-20.848 20.848-20.848 20.848 20.848zm31.455-31.455-20.848-20.848 20.848-20.848 20.848 20.848zm31.454-31.455-20.848-20.848 20.848-20.848 20.848 20.848zm31.455-31.454-20.848-20.848 20.848-20.848 20.848 20.848zm31.454-31.455-20.848-20.848 20.848-20.848 20.848 20.848zm-125.818 188.728-20.848-20.848 20.848-20.848 20.848 20.848zm31.454-31.454-20.848-20.848 20.848-20.848 20.848 20.848zm31.455-31.455-20.848-20.848 20.848-20.848 20.848 20.848zm31.455-31.455-20.848-20.848 20.848-20.848 20.848 20.848zm31.454-31.455-20.848-20.848 20.848-20.848 20.848 20.848zm31.455-31.454-20.848-20.848 20.848-20.848 20.848 20.848zm-94.364 157.273-20.848-20.848 20.848-20.848 20.848 20.848zm31.454-31.455-20.848-20.848 20.848-20.848 20.848 20.848zm31.455-31.455-20.848-20.848 20.848-20.848 20.848 20.848zm31.455-31.454-20.848-20.848 20.848-20.848 20.848 20.848z" fill="#fff"/></g><g><path d="m343.558 278.781.894.894-20.848 20.848-20.848-20.848 12.663-12.663c-4.33-2.59-8.494-5.506-12.465-8.749l-10.805 10.805-20.848-20.848 11.651-11.651c-2.953-4.285-5.563-8.757-7.831-13.383l-14.427 14.427-20.848-20.848 20.848-20.848 6.847 6.847c-2.631-10.039-3.886-20.503-3.794-31.112l-3.052 3.052-20.848-20.848 20.848-20.848 7.217 7.217c1.385-5.388 3.117-10.741 5.186-16.027l-1.796-1.796 4.384-4.384c7.119-15.936 17.387-31.103 30.756-44.472s28.537-23.638 44.472-30.756l4.145-4.145 1.692 1.692c5.274-2.08 10.617-3.821 15.993-5.22l-7.078-7.078 8.443-8.443c-5.787-1.566-11.707-2.73-17.723-3.491l-1.327 1.327-1.67-1.67c-7.16-.744-14.44-.936-21.775-.562l12.839 12.839-20.848 20.848-20.848-20.848 10.806-10.806c-11.164 1.937-22.319 5.142-33.233 9.592l1.214 1.214-20.848 20.848-7.833-7.833c-4.24 2.704-8.403 5.619-12.476 8.738l9.702 9.702-20.849 20.846-10.75-10.75c-3.42 3.628-6.723 7.404-9.891 11.322l10.034 10.034-20.848 20.848-6.321-6.321c-2.677 4.457-5.207 9.009-7.572 13.641l3.287 3.287-9.179 9.18c-4.724 10.813-8.587 21.921-11.476 33.075l20.655 20.655-20.848 20.848-5.645-5.645c-.679 10.75-.318 21.274 1.167 31.336l4.478-4.478 20.848 20.848-11.655 11.655 10.607 10.607 11.655-11.655 20.848 20.848-11.655 11.655 10.607 10.607 11.655-11.655 20.848 20.848-4.478 4.478c10.062 1.485 20.586 1.846 31.336 1.167l-5.645-5.645 20.848-20.848 20.655 20.655c11.154-2.889 22.262-6.753 33.074-11.476l9.179-9.179 3.287 3.287c4.632-2.365 9.184-4.895 13.641-7.572l-3.523-3.523c-8.479-.353-16.83-1.577-24.905-3.693zm-145.773-104.076-20.848-20.848 20.848-20.848 20.848 20.848zm31.455-31.455-20.848-20.848 20.848-20.848 20.848 20.848zm31.455-31.455-20.848-20.848 20.848-20.848 20.848 20.848zm31.455-31.455-20.848-20.848 20.848-20.848 20.848 20.848zm-94.365 157.274-20.848-20.848 20.848-20.848 20.848 20.848zm31.455-31.455-20.848-20.848 20.848-20.848 20.848 20.848zm0 62.91-20.848-20.848 20.848-20.848 20.848 20.848zm31.455 31.454-20.848-20.848 20.848-20.848 20.848 20.848z" fill="#d2f0ff"/></g><g><path d="m437.923 39.537c-28.449-28.45-67.877-42.328-111.02-39.07-42.222 3.186-83.058 22.498-115.011 54.381 10.775 2.128 18.716 10.976 20.676 21.755.127-.128.252-.26.379-.387 26.905-26.905 61.074-43.183 96.213-45.834 3.343-.252 6.65-.377 9.927-.377 30.334 0 57.614 10.736 77.623 30.745 22.17 22.17 32.955 53.263 30.368 87.55-2.651 35.139-18.929 69.308-45.834 96.213-27.573 27.573-67.475 48.159-106.734 55.067-40.277 7.088-73.999-.499-94.981-21.361-2.166 10.408-11.569 18.751-22.039 20.368.228.233.448.473.679.704 21.624 21.624 52.176 32.879 88.041 32.879 10.723 0 21.925-1.007 33.499-3.044 45.77-8.054 90.51-31.162 122.748-63.4 31.977-31.977 51.345-72.878 54.536-115.169 3.256-43.143-10.619-82.571-39.07-111.02z" fill="#ffc305"/></g><g><path d="m188.776 303.685c-3.839 0-7.677-1.464-10.606-4.394-28.089-28.089-38.685-71.253-29.836-121.54 8.054-45.771 31.163-90.51 63.401-122.748 5.857-5.857 15.355-5.857 21.213 0s5.858 15.355 0 21.213c-27.573 27.573-48.159 67.475-55.068 106.734-7.104 40.373.532 74.156 21.503 95.128 5.858 5.857 5.858 15.355 0 21.213-2.929 2.929-6.768 4.394-10.607 4.394z" fill="#ffa50a"/></g></g><g><path d="m330.21 330.81c-14.669-.762-28.465 2.754-40.252 9.41l-2.359 3.85c-38.853 63.41 35.005 136.598 97.422 96.17 5.946-3.851 9.918-7.784 11.262-11.729 2.83-8.308 4.222-17.281 3.881-26.623-1.387-38.025-31.955-69.105-69.954-71.078z" fill="#aad540"/><path d="m359.964 438.033c-40.841 0-73.949-33.108-73.949-73.949 0-8.347 1.403-16.362 3.953-23.847-22.47 12.689-37.651 36.775-37.651 64.42 0 40.841 33.108 73.949 73.949 73.949 32.494 0 60.072-20.967 69.996-50.102-10.725 6.056-23.103 9.529-36.298 9.529z" fill="#9dc63d"/><path d="m373.117 406.217c-1.548-23.009-20.065-41.56-43.068-43.15-13.053-.907-25.47 3.494-34.988 12.377-2.48 2.315-4.68 4.883-6.574 7.646l.444 16.091 5.81-.24c1.735-5.335 4.803-10.175 9.052-14.141 6.305-5.883 14.376-9.049 22.949-9.049.805 0 1.613.028 2.426.084 16.655 1.151 30.062 14.582 31.184 31.243.317 4.724-.317 9.338-1.889 13.714-1.988 5.537-2.891 11.327-2.775 17.111l6.87 3.814 5.921-4.18c-.071-4.211.589-8.411 2.028-12.42 2.169-6.048 3.048-12.406 2.61-18.9z" fill="#fff"/><g fill="#d2f0ff"><path d="m368.486 437.535c-2.797.322-5.638.498-8.522.498-1.433 0-2.853-.051-4.265-.131.206 10.277 3.628 20.533 9.978 29.316.85-.537 1.687-1.093 2.514-1.661.142-.098.283-.198.424-.297.636-.444 1.263-.9 1.885-1.363.305-.229.61-.458.912-.691.418-.321.829-.651 1.24-.981.438-.353.876-.707 1.305-1.07.234-.198.463-.401.695-.602.408-.353.812-.71 1.212-1.073-4.721-6.63-7.252-14.305-7.378-21.945z"/><path d="m294.847 420.189c-1.167-3.455-1.758-7.079-1.758-10.768 0-3.627.567-7.149 1.651-10.48-2.662-4.97-4.769-10.279-6.246-15.846-5.278 7.691-8.201 16.884-8.201 26.326 0 5.084.817 10.085 2.431 14.862 4.15 12.295 2.035 25.673-5.436 35.755 0 0 .001 0 .001.001 3.189 2.822 6.617 5.378 10.26 7.622.002.001.004.003.006.004 9.952-13.427 12.79-31.189 7.292-47.476z"/></g></g></g></svg>