<?xml version="1.0" encoding="UTF-8"?>
<!-- Generator: Adobe Illustrator 26.0.1, SVG Export Plug-In . SVG Version: 6.00 Build 0)  -->
<svg xmlns="http://www.w3.org/2000/svg" xmlns:xlink="http://www.w3.org/1999/xlink" version="1.1" id="Capa_1" x="0px" y="0px" viewBox="0 0 512.599 512.599" style="enable-background:new 0 0 512.599 512.599;" xml:space="preserve" width="512" height="512">
<g>
	<path d="M457.21,512.599H55.389C24.799,512.599,0,487.8,0,457.21V55.389C0,24.799,24.799,0,55.389,0h401.82   c30.591,0,55.389,24.799,55.389,55.389v401.82C512.599,487.8,487.8,512.599,457.21,512.599z"/>
	<path style="fill:#FFFFFF;" d="M367.882,300.107v-71.233c0-3.155-2.427-4.854-4.854-3.155l-72.811,41.988   c-1.578,0.85-3.155,3.277-3.155,5.704v84.096c0,3.276,2.427,4.854,4.854,3.276l61.404-35.556l59.948,34.707l-156.179,90.164   l-0.364,0.242l-0.485-0.242l-105.697-61.161l-50.118-29.124l59.584-34.586l61.525,35.556c2.426,1.578,4.854-0.849,4.004-4.004   v-84.218c0-2.427-0.849-4.005-3.276-5.582L149.45,224.87c-1.578-0.85-4.854,0.849-4.854,3.276v71.112l-59.826,34.828V152.908   l157.757-90.649v69.534l-61.525,35.677c-2.427,0.728-2.427,4.854,0,5.582l72.811,42.109c1.699,0.85,4.126,1.578,6.553,0   l72.811-42.109c2.427-0.728,2.427-4.005,0-5.582l-61.524-35.677V62.259l156.179,90.649v180.814L367.882,300.107z"/>
</g>















</svg>
