<?xml version="1.0" encoding="UTF-8"?>
<!-- Generator: Adobe Illustrator 26.0.1, SVG Export Plug-In . SVG Version: 6.00 Build 0)  -->
<svg xmlns="http://www.w3.org/2000/svg" xmlns:xlink="http://www.w3.org/1999/xlink" version="1.1" id="Capa_1" x="0px" y="0px" viewBox="0 0 511.68 511.68" style="enable-background:new 0 0 511.68 511.68;" xml:space="preserve" width="512" height="512">
<path d="M402.96,313.6v-93.92c0-4.16-3.2-6.399-6.4-4.16l-96,55.36c-2.08,1.12-4.16,4.32-4.16,7.521v110.88  c0,4.319,3.2,6.399,6.4,4.319l80.96-46.88l79.04,45.761L256.88,511.36l-0.48,0.319l-0.64-0.319l-139.36-80.641l-66.08-38.399  l78.561-45.601L210,393.6c3.199,2.08,6.399-1.119,5.279-5.279V277.28c0-3.2-1.119-5.28-4.319-7.36l-96-55.52  c-2.08-1.12-6.4,1.119-6.4,4.319v93.761L29.68,358.4V119.52L237.68,0v91.68l-81.12,47.04c-3.2,0.96-3.2,6.4,0,7.36l96,55.52  c2.24,1.12,5.44,2.08,8.64,0l96-55.52c3.2-0.96,3.2-5.28,0-7.36L276.08,91.68V0L482,119.52v238.4L402.96,313.6z"/>















</svg>
